<?xml version="1.0" standalone="no"?>
<!DOCTYPE svg PUBLIC "-//W3C//DTD SVG 20010904//EN"
 "http://www.w3.org/TR/2001/REC-SVG-20010904/DTD/svg10.dtd">
<svg version="1.0" xmlns="http://www.w3.org/2000/svg"
 width="192.000000pt" height="192.000000pt" viewBox="0 0 192.000000 192.000000"
 preserveAspectRatio="xMidYMid meet">
<metadata>
Created by potrace 1.11, written by Peter Selinger 2001-2013
</metadata>
<g transform="translate(0.000000,192.000000) scale(0.100000,-0.100000)"
fill="#000000" stroke="none">
<path d="M847 1824 c-1 -1 -42 -5 -92 -8 -49 -4 -106 -9 -125 -12 -19 -2 -42
-5 -50 -5 -8 -1 -31 -5 -50 -10 -19 -4 -46 -10 -60 -13 -77 -15 -148 -41 -172
-63 -10 -9 -29 -33 -41 -52 l-22 -36 -1 -625 c-1 -666 0 -675 48 -697 19 -9
23 -18 22 -54 0 -26 8 -59 19 -80 64 -119 245 -81 252 53 1 15 4 30 7 34 4 3
4 12 2 18 -4 10 77 12 370 12 206 -1 377 -3 379 -6 3 -3 6 -23 8 -45 7 -105
107 -168 197 -124 47 24 74 68 78 128 1 25 3 49 3 53 1 4 9 9 19 12 47 15 47
11 47 678 1 587 0 630 -17 664 -36 74 -85 104 -213 129 -16 3 -37 8 -46 11
-26 7 -128 21 -234 30 -63 5 -323 12 -328 8z m449 -146 c4 -4 8 -30 9 -58 2
-38 -2 -54 -15 -63 -23 -16 -643 -15 -663 1 -7 7 -12 29 -11 54 2 65 3 66 22
70 33 7 650 3 658 -4z m241 -280 c4 -7 8 -143 9 -301 0 -219 -3 -290 -12 -298
-19 -15 -1145 -14 -1154 1 -10 16 -7 582 3 598 6 9 133 12 577 12 444 0 571
-3 577 -12z m-1030 -819 c29 -16 42 -56 31 -97 -17 -62 -110 -77 -146 -23 -16
24 -18 35 -13 84 1 23 57 57 85 51 11 -2 31 -9 43 -15z m1001 2 c34 -18 46
-63 28 -105 -17 -40 -49 -58 -93 -50 -38 6 -72 49 -67 83 9 49 15 59 46 74 33
16 54 15 86 -2z"/>
</g>
</svg>
